<mxfile host="app.diagrams.net" agent="Mozilla/5.0 (Windows NT 10.0; Win64; x64) AppleWebKit/537.36 (KHTML, like Gecko) Chrome/128.0.0.0 Safari/537.36" version="24.7.14">
  <diagram name="Page-1" id="e7e014a7-5840-1c2e-5031-d8a46d1fe8dd">
    <mxGraphModel dx="1434" dy="780" grid="1" gridSize="10" guides="1" tooltips="1" connect="1" arrows="1" fold="1" page="1" pageScale="1" pageWidth="1169" pageHeight="826" background="none" math="0" shadow="0">
      <root>
        <mxCell id="0" />
        <mxCell id="1" parent="0" />
        <mxCell id="ins7T9z4JRkBAdSYciJ0-44" value="" style="whiteSpace=wrap;html=1;aspect=fixed;" vertex="1" parent="1">
          <mxGeometry x="20" y="150" width="380" height="380" as="geometry" />
        </mxCell>
        <mxCell id="ins7T9z4JRkBAdSYciJ0-46" value="" style="whiteSpace=wrap;html=1;aspect=fixed;" vertex="1" parent="1">
          <mxGeometry x="719" y="100" width="450" height="450" as="geometry" />
        </mxCell>
        <mxCell id="ins7T9z4JRkBAdSYciJ0-47" value="phone&lt;div&gt;&lt;br&gt;&lt;/div&gt;" style="text;html=1;align=center;verticalAlign=middle;resizable=0;points=[];autosize=1;strokeColor=none;fillColor=none;" vertex="1" parent="1">
          <mxGeometry x="170" y="160" width="60" height="40" as="geometry" />
        </mxCell>
        <mxCell id="ins7T9z4JRkBAdSYciJ0-48" value="pc" style="text;html=1;align=center;verticalAlign=middle;resizable=0;points=[];autosize=1;strokeColor=none;fillColor=none;" vertex="1" parent="1">
          <mxGeometry x="920" y="110" width="40" height="30" as="geometry" />
        </mxCell>
        <mxCell id="ins7T9z4JRkBAdSYciJ0-64" style="edgeStyle=orthogonalEdgeStyle;rounded=0;orthogonalLoop=1;jettySize=auto;html=1;exitX=1;exitY=0.5;exitDx=0;exitDy=0;" edge="1" parent="1" source="ins7T9z4JRkBAdSYciJ0-67" target="ins7T9z4JRkBAdSYciJ0-59">
          <mxGeometry relative="1" as="geometry" />
        </mxCell>
        <mxCell id="ins7T9z4JRkBAdSYciJ0-80" style="edgeStyle=orthogonalEdgeStyle;rounded=0;orthogonalLoop=1;jettySize=auto;html=1;" edge="1" parent="1" source="ins7T9z4JRkBAdSYciJ0-49" target="ins7T9z4JRkBAdSYciJ0-65">
          <mxGeometry relative="1" as="geometry" />
        </mxCell>
        <mxCell id="ins7T9z4JRkBAdSYciJ0-49" value="" style="rounded=0;whiteSpace=wrap;html=1;" vertex="1" parent="1">
          <mxGeometry x="470" y="200" width="120" height="130" as="geometry" />
        </mxCell>
        <mxCell id="ins7T9z4JRkBAdSYciJ0-50" value="database" style="text;html=1;align=center;verticalAlign=middle;resizable=0;points=[];autosize=1;strokeColor=none;fillColor=none;" vertex="1" parent="1">
          <mxGeometry x="495" y="200" width="70" height="30" as="geometry" />
        </mxCell>
        <mxCell id="ins7T9z4JRkBAdSYciJ0-54" value="" style="rounded=0;whiteSpace=wrap;html=1;" vertex="1" parent="1">
          <mxGeometry x="60" y="220" width="110" height="140" as="geometry" />
        </mxCell>
        <mxCell id="ins7T9z4JRkBAdSYciJ0-55" value="sovellus&lt;div&gt;&lt;br&gt;&lt;/div&gt;" style="text;html=1;align=center;verticalAlign=middle;resizable=0;points=[];autosize=1;strokeColor=none;fillColor=none;" vertex="1" parent="1">
          <mxGeometry x="80" y="256" width="70" height="40" as="geometry" />
        </mxCell>
        <mxCell id="ins7T9z4JRkBAdSYciJ0-56" value="" style="rounded=0;whiteSpace=wrap;html=1;" vertex="1" parent="1">
          <mxGeometry x="260" y="370" width="120" height="136" as="geometry" />
        </mxCell>
        <mxCell id="ins7T9z4JRkBAdSYciJ0-57" value="internet" style="text;html=1;align=center;verticalAlign=middle;whiteSpace=wrap;rounded=0;" vertex="1" parent="1">
          <mxGeometry x="280" y="380" width="60" height="30" as="geometry" />
        </mxCell>
        <mxCell id="ins7T9z4JRkBAdSYciJ0-58" value="internet" style="text;html=1;align=center;verticalAlign=middle;whiteSpace=wrap;rounded=0;" vertex="1" parent="1">
          <mxGeometry x="900" y="290" width="60" height="30" as="geometry" />
        </mxCell>
        <mxCell id="ins7T9z4JRkBAdSYciJ0-59" value="" style="rounded=0;whiteSpace=wrap;html=1;" vertex="1" parent="1">
          <mxGeometry x="810" y="200" width="250" height="270" as="geometry" />
        </mxCell>
        <mxCell id="ins7T9z4JRkBAdSYciJ0-60" value="internet" style="text;html=1;align=center;verticalAlign=middle;whiteSpace=wrap;rounded=0;" vertex="1" parent="1">
          <mxGeometry x="905" y="218" width="60" height="30" as="geometry" />
        </mxCell>
        <mxCell id="ins7T9z4JRkBAdSYciJ0-72" value="" style="edgeStyle=orthogonalEdgeStyle;rounded=0;orthogonalLoop=1;jettySize=auto;html=1;" edge="1" parent="1" source="ins7T9z4JRkBAdSYciJ0-65" target="ins7T9z4JRkBAdSYciJ0-57">
          <mxGeometry relative="1" as="geometry" />
        </mxCell>
        <mxCell id="ins7T9z4JRkBAdSYciJ0-65" value="" style="rounded=0;whiteSpace=wrap;html=1;" vertex="1" parent="1">
          <mxGeometry x="240" y="230" width="120" height="70" as="geometry" />
        </mxCell>
        <mxCell id="ins7T9z4JRkBAdSYciJ0-66" value="encryption/&lt;div&gt;firewall&lt;/div&gt;" style="text;html=1;align=center;verticalAlign=middle;whiteSpace=wrap;rounded=0;" vertex="1" parent="1">
          <mxGeometry x="260" y="230" width="60" height="30" as="geometry" />
        </mxCell>
        <mxCell id="ins7T9z4JRkBAdSYciJ0-68" value="" style="edgeStyle=orthogonalEdgeStyle;rounded=0;orthogonalLoop=1;jettySize=auto;html=1;exitX=1;exitY=0.5;exitDx=0;exitDy=0;" edge="1" parent="1" source="ins7T9z4JRkBAdSYciJ0-49" target="ins7T9z4JRkBAdSYciJ0-67">
          <mxGeometry relative="1" as="geometry">
            <mxPoint x="590" y="265" as="sourcePoint" />
            <mxPoint x="810" y="335" as="targetPoint" />
          </mxGeometry>
        </mxCell>
        <mxCell id="ins7T9z4JRkBAdSYciJ0-67" value="" style="rounded=0;whiteSpace=wrap;html=1;" vertex="1" parent="1">
          <mxGeometry x="740" y="300" width="50" height="50" as="geometry" />
        </mxCell>
        <mxCell id="ins7T9z4JRkBAdSYciJ0-69" value="encryption/&lt;div&gt;firewall&lt;/div&gt;" style="text;html=1;align=center;verticalAlign=middle;whiteSpace=wrap;rounded=0;" vertex="1" parent="1">
          <mxGeometry x="735" y="310" width="60" height="30" as="geometry" />
        </mxCell>
        <mxCell id="ins7T9z4JRkBAdSYciJ0-70" style="edgeStyle=orthogonalEdgeStyle;rounded=0;orthogonalLoop=1;jettySize=auto;html=1;exitX=0;exitY=0.5;exitDx=0;exitDy=0;entryX=0.982;entryY=0.436;entryDx=0;entryDy=0;entryPerimeter=0;" edge="1" parent="1" source="ins7T9z4JRkBAdSYciJ0-65" target="ins7T9z4JRkBAdSYciJ0-54">
          <mxGeometry relative="1" as="geometry" />
        </mxCell>
      </root>
    </mxGraphModel>
  </diagram>
</mxfile>
